<svg id="fd370e2b-ff56-4eda-91c5-f96bab3956b0" data-name="Layer 1" xmlns="http://www.w3.org/2000/svg" viewBox="0 0 189 215">
  <defs>
    <style>
      .e405c095-bcb8-4d28-a6df-3188d1e4c738 {
        fill: none;
      }
      .a8e0b2ab-92f8-45f2-8564-e004954fb673 {
        fill: #312783;
      }
      .b0ecda90-d3b2-4000-8b8e-44180413e06b {
        fill: #fff;
      }
      .e689dd0b-ba4a-4791-80a6-85d2200c900f {
        fill: #e6007e;
      }
    </style>
  </defs>
  <rect class="e405c095-bcb8-4d28-a6df-3188d1e4c738" width="189" height="215"/>
  <path class="a8e0b2ab-92f8-45f2-8564-e004954fb673" d="M275.968,525.888c-2.838,0-6.942-1.192-10.379-6.869-1.956-3.233-3.615-7.778-5.071-13.9-4.754-19.973-11.963-36.952-20.846-49.1-8.438-11.541-33.832-31.332-41.634-36.854a15.316,15.316,0,0,1-6.094-13.395c.29-2.978,1.863-8.426,9.134-11.453,4.435-1.847,26.089-13.643,41.511-28.4,14.023-13.42,31.252-41.415,31.979-42.6,1.467-2.394,6.845-10.2,14.421-10.2.128,0,.254,0,.381.007,8.647.313,13.291,8.621,15.785,13.084.886,1.585,2.238,4.352,4.108,8.181,5.241,10.733,15,30.711,23.55,42.162,12.167,16.29,24.228,26.2,33.035,33.433l.747.614c5.7,4.685,11.589,9.528,11.511,16.446a11.409,11.409,0,0,1-4.624,8.976c-1.513,1.182-4.376,2.966-9.729,6.28-11.69,7.237-31.256,19.351-41.99,29.725-10.312,9.969-18.272,22.609-24.667,32.766-3.261,5.178-6.076,9.65-8.813,13.222C286.789,519.957,282.245,525.888,275.968,525.888Z" transform="translate(-190.493 -312)"/>
  <path class="b0ecda90-d3b2-4000-8b8e-44180413e06b" d="M289.149,322.547c4.222.143,7.052,3.538,10.311,9s16.373,33.135,28.18,47.955c13.038,16.366,26.076,26.229,34.935,33.058,6.583,5.075,11.782,9.407,7.018,12.9-4.734,3.468-36.753,20.146-52.258,34.2-16.087,14.579-26.275,34.182-34.173,43.846-6.483,7.933-11.93,7.355-16.192-9.434-4.627-18.225-11.882-35.484-22.081-48.563-9.4-12.057-36.037-31.256-43.216-36.02-2.733-1.814-6.144-8.16,1.788-11.256,5.655-2.208,27.842-13.8,43.531-27.873,14.041-12.6,30.808-37.735,33.121-41.273S285.988,322.44,289.149,322.547Z" transform="translate(-190.493 -312)"/>
  <path class="a8e0b2ab-92f8-45f2-8564-e004954fb673" d="M262.628,416.237q0,.594-.556.594h-6.788q-.556,0-.556-.672,0-1.937.144-5.81t.143-5.81q0-.556-.172-.594a54.82,54.82,0,0,0-2.57,5.925q-1.38,3.414-2.761,6.807a.81.81,0,0,1-.479.518,7.525,7.525,0,0,1-.768.019q-1,0-1.189-.383-1.035-2.111-2.722-6.136-1.8-4.257-2.7-6.156a.59.59,0,0,0-.173-.211.916.916,0,0,0-.134.556q0,1.88.1,5.638t.1,5.637q0,.672-.537.672h-6.405c-.256,0-.412-.042-.47-.125a.8.8,0,0,1-.086-.431q0-2.089.2-6.281t.2-6.279q0-2.224-.192-8.342-.019-1.591-.172-4.737l-.02-.326q-.02-.382.806-.383,1.053,0,3.164-.067t3.164-.067q.21,0,.594.805l5.6,12.292q.594,1.247,1,1.246.21,0,.9-1.438,1.936-4.028,5.733-12.138.327-.749.71-.748.556,0,1.678.057t1.7.058c.319,0,.809-.032,1.467-.1s1.147-.1,1.467-.1q.574,0,.575.46,0,2.264-.163,6.76t-.163,6.76q0,2.09.173,6.27T262.628,416.237Z" transform="translate(-190.493 -312)"/>
  <path class="a8e0b2ab-92f8-45f2-8564-e004954fb673" d="M285.332,407.243q0,1.476.173,4.391t.173,4.372c0,.512-.224.786-.671.825q-2.379.173-5.446.172-.364,0-.489-1.1t-.3-1.122a1.753,1.753,0,0,0-.4.326,6.428,6.428,0,0,1-4.6,2.167,7.718,7.718,0,0,1-6.194-2.953,9.922,9.922,0,0,1-2.32-6.6,10.354,10.354,0,0,1,2.4-7.133,8.67,8.67,0,0,1,6.826-2.8,5.845,5.845,0,0,1,4.756,2.109c.05.065.095.1.134.1.115,0,.247-.31.393-.93s.323-.93.527-.93a16.8,16.8,0,0,1,2.7.4,27.43,27.43,0,0,1,2.723.652c.193.076.288.179.288.307a3.464,3.464,0,0,1-.057.4A42.089,42.089,0,0,0,285.332,407.243Zm-6.173.115a3.723,3.723,0,0,0-1.027-2.694,3.894,3.894,0,0,0-5.341-.01,3.973,3.973,0,0,0,.058,5.369,3.487,3.487,0,0,0,2.608,1.112,3.553,3.553,0,0,0,2.665-1.064A3.728,3.728,0,0,0,279.159,407.358Z" transform="translate(-190.493 -312)"/>
  <path class="a8e0b2ab-92f8-45f2-8564-e004954fb673" d="M308.248,411.845q0,5.464-2.3,7.843-2.377,2.434-7.9,2.435a25.561,25.561,0,0,1-4.39-.517q-3.549-.654-3.548-1.535,0-.365.824-3.758c.09-.358.23-.537.422-.537a.868.868,0,0,1,.211.077,12.465,12.465,0,0,0,5.466,1.457,6.015,6.015,0,0,0,2.742-.69q1.647-.825,1.648-2.071v-1.285a7.033,7.033,0,0,1-5.023,1.841,7.6,7.6,0,0,1-5.926-2.589,9.6,9.6,0,0,1-.1-12.215,7.494,7.494,0,0,1,5.867-2.512,5.173,5.173,0,0,1,4.43,2.071q.308.422.422.422.172,0,.173-.691,0-1.533.346-1.534.306,0,3.317.317t3.125.355a.472.472,0,0,1,.326.5q0,1.323-.086,3.95t-.087,3.951q0,.786.02,2.359T308.248,411.845Zm-6.634-5.312a3.492,3.492,0,0,0-.931-2.425,3.138,3.138,0,0,0-4.659.019,3.559,3.559,0,0,0-.931,2.444,3.42,3.42,0,0,0,.949,2.417A3.043,3.043,0,0,0,298.353,410a3,3,0,0,0,2.33-1.036A3.527,3.527,0,0,0,301.614,406.533Z" transform="translate(-190.493 -312)"/>
  <path class="a8e0b2ab-92f8-45f2-8564-e004954fb673" d="M318.66,408.029q0,1.4.058,4.171t.058,4.151q0,.4-.48.48a22.4,22.4,0,0,1-2.933.115,22.663,22.663,0,0,1-2.954-.115c-.281-.051-.454-.135-.517-.25a2.216,2.216,0,0,1-.038-.575q0-1.323.057-3.979t.057-4a70.066,70.066,0,0,0-.422-8.667c-.025-.205-.038-.339-.038-.4q0-.384.518-.384.537,0,1.639.115c.736.077,1.288.115,1.66.115s.926-.031,1.668-.1,1.3-.1,1.667-.1c.308,0,.461.128.461.384a3.438,3.438,0,0,1-.039.365A78.312,78.312,0,0,0,318.66,408.029Zm.5-14.248q0,3.337-3.758,3.337a4.128,4.128,0,0,1-2.665-.844,3.2,3.2,0,0,1,.038-4.947,4.05,4.05,0,0,1,2.627-.882,3.942,3.942,0,0,1,2.589.9A3.012,3.012,0,0,1,319.159,393.781Z" transform="translate(-190.493 -312)"/>
  <path class="a8e0b2ab-92f8-45f2-8564-e004954fb673" d="M335.056,404.213q-.019,0-1.16-.307a7.514,7.514,0,0,0-1.851-.307,3.662,3.662,0,0,0-2.722,1.026,3.712,3.712,0,0,0-1.017,2.733,3.55,3.55,0,0,0,1.112,2.771,4.149,4.149,0,0,0,2.9,1.006,5.075,5.075,0,0,0,1.9-.431,9.143,9.143,0,0,0,1-.431q.327,0,.844,2.435a19.351,19.351,0,0,1,.441,2.953q0,.729-2.377,1.246a14.582,14.582,0,0,1-2.973.4,9.26,9.26,0,0,1-6.96-2.838,10.476,10.476,0,0,1,.009-14.142,9.228,9.228,0,0,1,6.951-2.867,10.019,10.019,0,0,1,5.024,1.227c.332.179.5.352.5.518a18.792,18.792,0,0,1-.575,2.263q-.537,1.937-.7,2.339C335.284,404.079,335.171,404.213,335.056,404.213Z" transform="translate(-190.493 -312)"/>
  <path class="a8e0b2ab-92f8-45f2-8564-e004954fb673" d="M268.73,430.8q0,.384-.422.384-.729,0-5.772-.287-.115,4.851-.115,6.768,0,2.264.182,6.808t.182,6.808q0,.364-.172.46a2.348,2.348,0,0,1-.537.095,27.4,27.4,0,0,1-3.375.154,26.269,26.269,0,0,1-3.471-.154.562.562,0,0,1-.537-.594q0-2.262.192-6.789t.191-6.788q0-1.5-.153-6.673-3.834.384-6.117.383c-.205,0-.307-.063-.307-.191a11.283,11.283,0,0,1,.269-1.477q.306-1.341.345-1.63.057-.9.134-1.8.133-1.439.46-1.439c.026,0,.116.007.269.02a77.52,77.52,0,0,0,9.185.4q1.727,0,6.367-.364l2.512-.192a1.069,1.069,0,0,1,.441.048c.038.032.064.157.076.374q0,.517-.038,1.439-.039,1.017-.038,1.437a11.525,11.525,0,0,0,.124,1.41A11.562,11.562,0,0,1,268.73,430.8Z" transform="translate(-190.493 -312)"/>
  <path class="a8e0b2ab-92f8-45f2-8564-e004954fb673" d="M283.362,439.886c0,.5-.276.748-.825.748-.244,0-.6-.017-1.064-.048s-.816-.048-1.045-.048a3.428,3.428,0,0,0-2.168.5,2.65,2.65,0,0,0-.574,2.014q0,.825.027,2.5t.03,2.5q0,.556.076,1.658c.05.735.078,1.282.078,1.64,0,.307-.211.479-.633.518q-.923.077-2.82.076a29.048,29.048,0,0,1-2.914-.115q-.633-.077-.633-.633,0-1.533.019-4.592t.02-4.592a27.84,27.84,0,0,0-.826-7.422,1.33,1.33,0,0,1-.037-.287.376.376,0,0,1,.287-.384q1.054-.115,3.088-.422,3.029-.594,3.125-.6c.23,0,.377.4.441,1.208s.178,1.208.346,1.208q-.27,0,1.572-1.005a7.377,7.377,0,0,1,3.547-1.007c.717,0,1.074.153,1.074.46a15.178,15.178,0,0,1-.115,1.572q-.114,1.093-.135,1.572,0,.556.02,1.477C283.348,439.145,283.362,439.643,283.362,439.886Z" transform="translate(-190.493 -312)"/>
  <path class="a8e0b2ab-92f8-45f2-8564-e004954fb673" d="M303.17,441.42q0,1.936-1.247,2.2-.21.039-3.969.422-2.262.249-6.75.595a2.716,2.716,0,0,0,1.63,1.9,5.752,5.752,0,0,0,2.532.536,7.238,7.238,0,0,0,3.432-.92l1.457-.92a5.678,5.678,0,0,1,1.352,1.956,7.18,7.18,0,0,1,.949,2.244q0,.133-.287.44-2.34,2.513-7.268,2.513a10.235,10.235,0,0,1-7.363-2.666,9.45,9.45,0,0,1-2.877-7.23,10.319,10.319,0,0,1,2.569-7.228,9.021,9.021,0,0,1,7.019-2.915,8.329,8.329,0,0,1,6.252,2.684A8.918,8.918,0,0,1,303.17,441.42Zm-6.712-1.17a2.966,2.966,0,0,0-.843-2.09,2.665,2.665,0,0,0-2.014-.9,2.421,2.421,0,0,0-1.994,1.016,3.5,3.5,0,0,0-.729,2.206c0,.344.179.517.537.517a33.7,33.7,0,0,0,4.411-.441Q296.458,440.461,296.458,440.25Z" transform="translate(-190.493 -312)"/>
  <path class="a8e0b2ab-92f8-45f2-8564-e004954fb673" d="M322.845,441.42q0,1.936-1.247,2.2-.212.039-3.969.422-2.264.249-6.75.595a2.716,2.716,0,0,0,1.63,1.9,5.748,5.748,0,0,0,2.531.536,7.239,7.239,0,0,0,3.433-.92l1.457-.92a5.678,5.678,0,0,1,1.352,1.956,7.207,7.207,0,0,1,.949,2.244q0,.133-.287.44-2.34,2.513-7.268,2.513a10.235,10.235,0,0,1-7.363-2.666,9.45,9.45,0,0,1-2.877-7.23,10.315,10.315,0,0,1,2.569-7.228,9.021,9.021,0,0,1,7.019-2.915,8.329,8.329,0,0,1,6.252,2.684A8.918,8.918,0,0,1,322.845,441.42Zm-6.712-1.17a2.962,2.962,0,0,0-.844-2.09,2.662,2.662,0,0,0-2.013-.9,2.421,2.421,0,0,0-1.994,1.016,3.5,3.5,0,0,0-.729,2.206c0,.344.179.517.537.517a33.688,33.688,0,0,0,4.41-.441Q316.133,440.461,316.133,440.25Z" transform="translate(-190.493 -312)"/>
  <path class="a8e0b2ab-92f8-45f2-8564-e004954fb673" d="M304.767,350.857a.554.554,0,0,0-.711-.329c-.043.016-4.424,1.586-13.506,1.452-.188,0-.376-.01-.563-.019a19.877,19.877,0,0,1-3.462-.476,32.565,32.565,0,0,1-12.9-6.721.553.553,0,1,0-.743.82,32.91,32.91,0,0,0,13.255,6.958q.432.1.871.182a21.333,21.333,0,0,0,2.49.32c.309.02.621.034.934.041l.1,0c.379.006.75.008,1.113.008,8.551,0,12.617-1.463,12.792-1.528A.554.554,0,0,0,304.767,350.857Z" transform="translate(-190.493 -312)"/>
  <path class="e689dd0b-ba4a-4791-80a6-85d2200c900f" d="M291.486,362.433a.183.183,0,0,1-.031-.095v-2.7s0-.144-.056-.192a.552.552,0,0,0-.24-.057h-1.181s-.074,0-.091-.014,0-.063.006-.1c.4-1.5.986-4.252.543-6.187a3.562,3.562,0,0,0-.449-1.124l-.038-.061a2.289,2.289,0,0,0-1.859-1.017,1.731,1.731,0,0,0-1.565.6c.555.125,1.691.311,1.691.311a1.378,1.378,0,0,1,.992.61,2.373,2.373,0,0,1,.294.638c.468,1.522.018,4.079-.421,5.794-.014.056-.032.1-.049.1s-.046-.041-.072-.094c-1.018-2.052-2.06-4.716-1.948-6.121q-.44-.084-.871-.182c-.2,1.9,1.169,4.994,2.017,6.7.025.051.045.091.026.12s-.116.027-.116.027h-1.644s-.213,0-.256.048a.614.614,0,0,0-.047.263v2.43s0,.1-.024.123a.145.145,0,0,1-.08.04,13.571,13.571,0,1,0,5.566.189A.145.145,0,0,1,291.486,362.433Z" transform="translate(-190.493 -312)"/>
  <ellipse class="b0ecda90-d3b2-4000-8b8e-44180413e06b" cx="290.606" cy="369.314" rx="3.417" ry="3.646" transform="translate(-290.759 -203.576) rotate(-18.08)"/>
</svg>